{
    "asset" : {
        "generator" : "Khronos glTF Blender I/O v1.8.19",
        "version" : "2.0"
    },
    "extensionsUsed" : [
        "KHR_texture_transform"
    ],
    "extensionsRequired" : [
        "KHR_texture_transform"
    ],
    "scene" : 0,
    "scenes" : [
        {
            "name" : "Scene",
            "nodes" : [
                0,
                1,
                2
            ]
        }
    ],
    "nodes" : [
        {
            "mesh" : 0,
            "name" : "SandPlane1",
            "rotation" : [
                0,
                0.7071067690849304,
                0,
                0.7071068286895752
            ]
        },
        {
            "mesh" : 1,
            "name" : "SandPLane2",
            "translation" : [
                100,
                0,
                0
            ]
        },
        {
            "mesh" : 2,
            "name" : "SandPLane2.001",
            "translation" : [
                100,
                0,
                -100
            ]
        }
    ],
    "materials" : [
        {
            "name" : "sand_01",
            "normalTexture" : {
                "extensions" : {
                    "KHR_texture_transform" : {
                        "offset" : [
                            0,
                            -1
                        ],
                        "scale" : [
                            2,
                            2
                        ]
                    }
                },
                "index" : 0
            },
            "pbrMetallicRoughness" : {
                "baseColorTexture" : {
                    "extensions" : {
                        "KHR_texture_transform" : {
                            "offset" : [
                                0,
                                -1
                            ],
                            "scale" : [
                                2,
                                2
                            ]
                        }
                    },
                    "index" : 1
                },
                "metallicFactor" : 0,
                "metallicRoughnessTexture" : {
                    "extensions" : {
                        "KHR_texture_transform" : {
                            "offset" : [
                                0,
                                -1
                            ],
                            "scale" : [
                                2,
                                2
                            ]
                        }
                    },
                    "index" : 2
                }
            }
        }
    ],
    "meshes" : [
        {
            "name" : "Plane.002",
            "primitives" : [
                {
                    "attributes" : {
                        "POSITION" : 0,
                        "NORMAL" : 1,
                        "TEXCOORD_0" : 2
                    },
                    "indices" : 3,
                    "material" : 0
                }
            ]
        },
        {
            "name" : "Plane.005",
            "primitives" : [
                {
                    "attributes" : {
                        "POSITION" : 4,
                        "NORMAL" : 5,
                        "TEXCOORD_0" : 6
                    },
                    "indices" : 3,
                    "material" : 0
                }
            ]
        },
        {
            "name" : "Plane.003",
            "primitives" : [
                {
                    "attributes" : {
                        "POSITION" : 7,
                        "NORMAL" : 8,
                        "TEXCOORD_0" : 9
                    },
                    "indices" : 3,
                    "material" : 0
                }
            ]
        }
    ],
    "textures" : [
        {
            "sampler" : 0,
            "source" : 0
        },
        {
            "sampler" : 0,
            "source" : 1
        },
        {
            "sampler" : 0,
            "source" : 2
        }
    ],
    "images" : [
        {
            "mimeType" : "image/png",
            "name" : "sand_01_nor_4k",
            "uri" : "sand_01_nor_4k.png"
        },
        {
            "mimeType" : "image/jpeg",
            "name" : "sand_01_diff_4k",
            "uri" : "sand_01_diff_4k.jpg"
        },
        {
            "mimeType" : "image/png",
            "name" : "sand_01_rough_4k",
            "uri" : "sand_01_rough_4k.png"
        }
    ],
    "accessors" : [
        {
            "bufferView" : 0,
            "componentType" : 5126,
            "count" : 1089,
            "max" : [
                50.00019073486328,
                2.639631748199463,
                50
            ],
            "min" : [
                -50,
                -0.07996650040149689,
                -50
            ],
            "type" : "VEC3"
        },
        {
            "bufferView" : 1,
            "componentType" : 5126,
            "count" : 1089,
            "type" : "VEC3"
        },
        {
            "bufferView" : 2,
            "componentType" : 5126,
            "count" : 1089,
            "type" : "VEC2"
        },
        {
            "bufferView" : 3,
            "componentType" : 5123,
            "count" : 6144,
            "type" : "SCALAR"
        },
        {
            "bufferView" : 4,
            "componentType" : 5126,
            "count" : 1089,
            "max" : [
                50,
                1.8145689964294434,
                50
            ],
            "min" : [
                -50,
                -1.188469648361206,
                -50
            ],
            "type" : "VEC3"
        },
        {
            "bufferView" : 5,
            "componentType" : 5126,
            "count" : 1089,
            "type" : "VEC3"
        },
        {
            "bufferView" : 6,
            "componentType" : 5126,
            "count" : 1089,
            "type" : "VEC2"
        },
        {
            "bufferView" : 7,
            "componentType" : 5126,
            "count" : 1089,
            "max" : [
                50,
                0.5860736966133118,
                50
            ],
            "min" : [
                -50,
                -10.407281875610352,
                -50
            ],
            "type" : "VEC3"
        },
        {
            "bufferView" : 8,
            "componentType" : 5126,
            "count" : 1089,
            "type" : "VEC3"
        },
        {
            "bufferView" : 9,
            "componentType" : 5126,
            "count" : 1089,
            "type" : "VEC2"
        }
    ],
    "bufferViews" : [
        {
            "buffer" : 0,
            "byteLength" : 13068,
            "byteOffset" : 0
        },
        {
            "buffer" : 0,
            "byteLength" : 13068,
            "byteOffset" : 13068
        },
        {
            "buffer" : 0,
            "byteLength" : 8712,
            "byteOffset" : 26136
        },
        {
            "buffer" : 0,
            "byteLength" : 12288,
            "byteOffset" : 34848
        },
        {
            "buffer" : 0,
            "byteLength" : 13068,
            "byteOffset" : 47136
        },
        {
            "buffer" : 0,
            "byteLength" : 13068,
            "byteOffset" : 60204
        },
        {
            "buffer" : 0,
            "byteLength" : 8712,
            "byteOffset" : 73272
        },
        {
            "buffer" : 0,
            "byteLength" : 13068,
            "byteOffset" : 81984
        },
        {
            "buffer" : 0,
            "byteLength" : 13068,
            "byteOffset" : 95052
        },
        {
            "buffer" : 0,
            "byteLength" : 8712,
            "byteOffset" : 108120
        }
    ],
    "samplers" : [
        {
            "magFilter" : 9729,
            "minFilter" : 9987
        }
    ],
    "buffers" : [
        {
            "byteLength" : 116832,
            "uri" : "sand.bin"
        }
    ]
}
